<?xml version="1.0" encoding="UTF-8" standalone="no"?>
<svg
   xmlns:dc="http://purl.org/dc/elements/1.1/"
   xmlns:cc="http://creativecommons.org/ns#"
   xmlns:rdf="http://www.w3.org/1999/02/22-rdf-syntax-ns#"
   xmlns:svg="http://www.w3.org/2000/svg"
   xmlns="http://www.w3.org/2000/svg"
   xmlns:sodipodi="http://sodipodi.sourceforge.net/DTD/sodipodi-0.dtd"
   xmlns:inkscape="http://www.inkscape.org/namespaces/inkscape"
   version="1.0"
   viewBox="0 0 989.99997 542.66666"
   preserveAspectRatio="xMidYMid meet"
   id="svg8"
   sodipodi:docname="generated.svg.2020_03_09_15_56_08.0.svg"
   inkscape:version="0.92.4 (5da689c313, 2019-01-14)">
  <defs
     id="defs12" />
  <sodipodi:namedview
     pagecolor="#ffffff"
     bordercolor="#666666"
     borderopacity="1"
     objecttolerance="10"
     gridtolerance="10"
     guidetolerance="10"
     inkscape:pageopacity="0"
     inkscape:pageshadow="2"
     inkscape:window-width="2560"
     inkscape:window-height="1361"
     id="namedview10"
     showgrid="false"
     scale-x="0.55"
     inkscape:pagecheckerboard="true"
     fit-margin-top="0"
     fit-margin-left="0"
     fit-margin-right="0"
     fit-margin-bottom="0"
     inkscape:zoom="0.70078627"
     inkscape:cx="593.3902"
     inkscape:cy="611.83498"
     inkscape:window-x="1911"
     inkscape:window-y="41"
     inkscape:window-maximized="1"
     inkscape:current-layer="layer1" />
  <metadata
     id="metadata2">
Created by potrace 1.12, written by Peter Selinger 2001-2015
<rdf:RDF>
  <cc:Work
     rdf:about="">
    <dc:format>image/svg+xml</dc:format>
    <dc:type
       rdf:resource="http://purl.org/dc/dcmitype/StillImage" />
    <dc:title></dc:title>
  </cc:Work>
</rdf:RDF>
</metadata>
  <g
     id="g4572"
     transform="translate(0,-62.950292)">
    <g
       style="fill:#000000;stroke:none"
       id="g6"
       transform="matrix(0.1,0,0,-0.1,123.73139,456)">
      <path
         inkscape:connector-curvature="0"
         style="fill:none;fill-opacity:1"
         id="path5102"
         d="M 0,2280 V 0 H 3500 7000 V 2280 4560 H 3500 0 Z" />
      <path
         style="fill:#0489b0;fill-opacity:1"
         inkscape:connector-curvature="0"
         id="path5100"
         d="m 3570,3871 c 0,-4 -48,-45 -107,-89 -60,-44 -152,-123 -205,-175 l -98,-94 -222,-6 c -221,-5 -253,-8 -418,-49 -252,-62 -513,-231 -696,-450 -66,-80 -174,-245 -174,-268 0,-5 -11,-29 -24,-52 -54,-98 -95,-256 -117,-451 -10,-86 -10,-131 0,-225 7,-64 16,-133 21,-152 5,-19 14,-57 21,-85 72,-307 304,-628 584,-808 167,-107 308,-161 533,-206 69,-14 359,-14 436,0 676,122 1148,675 1165,1364 1,39 9,93 17,122 38,131 176,269 286,285 18,2 23,-3 30,-32 38,-164 49,-428 27,-599 -26,-190 -90,-403 -169,-561 C 4335,1092 4103,826 3882,676 3663,528 3464,448 3170,389 c -88,-18 -471,-18 -565,-1 -223,41 -404,105 -565,197 -36,21 -81,46 -100,57 -100,58 -331,262 -419,371 -46,59 -160,235 -198,307 -71,136 -139,332 -162,470 -27,161 -31,205 -31,339 0,366 100,689 304,986 251,364 611,617 1028,719 165,41 213,44 666,45 244,1 442,-3 442,-8 z" />
      <path
         style="fill:#0489b0;fill-opacity:1"
         inkscape:connector-curvature="0"
         id="path5098"
         d="m 4985,3860 c 61,-11 126,-24 145,-29 19,-6 51,-14 70,-19 196,-54 466,-201 636,-347 145,-125 302,-313 384,-461 15,-27 32,-58 38,-69 70,-120 142,-348 182,-575 17,-98 14,-387 -5,-500 -54,-313 -177,-597 -359,-825 -70,-87 -239,-251 -326,-316 -142,-106 -299,-191 -465,-252 -63,-23 -118,-37 -295,-78 -58,-13 -945,-27 -977,-15 -11,5 12,27 88,83 56,42 149,121 205,175 l 103,98 h 205 c 256,0 392,21 580,90 309,113 595,372 745,675 64,128 63,126 95,230 35,115 44,165 56,300 35,403 -130,828 -435,1118 -62,59 -182,149 -247,186 -21,12 -53,29 -70,39 -108,60 -297,121 -446,142 -108,16 -382,7 -482,-15 -270,-59 -507,-189 -700,-384 -113,-115 -183,-208 -253,-341 -93,-178 -157,-418 -157,-591 0,-192 -73,-333 -212,-411 -67,-37 -99,-40 -108,-8 -18,62 -29,132 -35,210 -4,47 -7,94 -8,105 -5,48 15,301 29,365 13,62 22,100 54,215 23,84 43,131 111,268 104,209 241,379 453,565 64,57 225,162 315,206 207,100 352,145 581,180 14,2 108,4 210,5 145,1 209,-3 295,-19 z" />
      <path
         style="fill:#03799d;fill-opacity:1"
         inkscape:connector-curvature="0"
         id="path4"
         d="m 4890,3192 c 53,-10 89,-19 155,-40 35,-11 164,-74 215,-105 226,-137 439,-439 482,-682 48,-277 19,-500 -94,-729 -150,-304 -431,-511 -796,-585 -58,-12 -212,-15 -212,-4 0,3 15,34 34,67 67,121 82,152 110,219 19,46 34,67 45,67 33,0 166,53 236,94 85,50 197,161 247,245 75,126 108,244 108,383 0,99 -5,133 -37,233 -97,306 -378,510 -703,509 -104,0 -190,-16 -270,-51 -75,-32 -87,-39 -140,-74 -128,-85 -236,-223 -285,-364 -29,-83 -36,-124 -45,-270 -8,-129 -36,-284 -60,-327 -6,-10 -10,-22 -10,-28 0,-6 -16,-43 -36,-82 -148,-301 -395,-499 -724,-584 -79,-20 -120,-24 -237,-24 -199,0 -308,27 -498,121 -273,135 -482,411 -552,729 -16,77 -20,361 -5,411 5,19 15,61 22,94 19,85 110,266 183,360 165,215 356,334 650,404 26,6 88,11 137,11 h 90 l -49,-97 c -27,-54 -56,-116 -66,-138 -10,-22 -24,-54 -31,-71 -18,-40 -27,-47 -94,-68 -111,-35 -195,-84 -274,-157 -109,-102 -163,-185 -207,-319 -21,-66 -24,-93 -24,-220 1,-124 4,-154 23,-207 56,-157 116,-249 224,-341 69,-59 213,-133 298,-153 110,-27 321,-15 392,22 10,5 24,9 31,9 24,0 111,47 175,94 179,132 291,340 292,543 0,167 52,390 121,527 50,99 137,212 236,307 155,147 324,232 558,277 59,12 306,7 385,-6 z" />
    </g>
    <path
       inkscape:connector-curvature="0"
       id="path818"
       d="m 397.22626,197.38735 a 24.695746,43.286919 0 0 0 -21.3877,21.64336 24.695746,43.286919 0 0 0 0,43.28672 24.695746,43.286919 0 0 0 21.3877,21.64443 v -1.82188 a 32.465191,64.958762 0 0 1 -3.3666,-9.45312 32.465191,64.958762 0 0 1 0,-64.958 32.465191,64.958762 0 0 1 3.3666,-9.48214 z"
       style="fill:#036b89;fill-opacity:1;fill-rule:nonzero;stroke:#ffffff;stroke-width:0;stroke-miterlimit:10;stroke-dasharray:none;stroke-opacity:1" />
    <path
       inkscape:connector-curvature="0"
       id="path818-4"
       d="m 612.48303,288.50335 a 24.695746,43.286918 0 0 0 21.3877,-21.64336 24.695746,43.286918 0 0 0 0,-43.28672 24.695746,43.286918 0 0 0 -21.3877,-21.64443 v 1.82188 a 32.46519,64.958762 0 0 1 3.3666,9.45312 32.46519,64.958762 0 0 1 0,64.958 32.46519,64.958762 0 0 1 -3.3666,9.48214 z"
       style="fill:#037394;fill-opacity:1;fill-rule:nonzero;stroke:#ffffff;stroke-width:0;stroke-miterlimit:10;stroke-dasharray:none;stroke-opacity:1" />
  </g>
  <g
     inkscape:groupmode="layer"
     id="layer1"
     inkscape:label="Layer 1"
     transform="translate(236.73139,-4.2837138)"
     style="display:inline">
    <g
       id="g4563"
       transform="matrix(0.54999999,0,0,0.54999999,-236.73139,370.95037)">
      <path
         id="path4540"
         d="M 0,0 H 900 V 320 H 0 Z"
         inkscape:connector-curvature="0"
         style="fill:#ffffff;fill-rule:evenodd" />
      <path
         id="path4542"
         d="m 900,0 h 900 V 320 H 900 Z"
         inkscape:connector-curvature="0"
         style="fill:#ffffff;fill-rule:evenodd" />
      <path
         id="path4544"
         d="m 900,23 h 874 V 299 H 900 Z"
         inkscape:connector-curvature="0"
         style="fill:#037394;fill-rule:evenodd" />
      <path
         id="path4546"
         d="m 753.325,225.825 c -6.269,6.2 -14.069,9.3 -23.4,9.3 h -76.6 v -14.6 c 0,-1.731 0.865,-2.6 2.599,-2.6 h 74.001 c 4.131,0 7.631,-1.466 10.5,-4.4 2.865,-2.931 4.3,-6.531 4.3,-10.8 v -18.2 c 0,-2.531 -1.2,-4.131 -3.601,-4.8 l -76.8,-25.6 c -3.068,-1.066 -5.668,-3.066 -7.799,-6 -2.135,-2.931 -3.2,-6 -3.2,-9.2 v -23.8 c 0,-9.2 3.231,-16.531 9.699,-22 6.466,-5.466 14.566,-8.2 24.301,-8.2 h 71.199 v 14.6 c 0,1.734 -0.868,2.6 -2.6,2.6 h -68.599 c -4.269,0 -7.901,1.269 -10.901,3.8 -2.999,2.534 -4.499,5.869 -4.499,10 v 19.4 c 0,2.669 1.2,4.334 3.6,5 l 76.799,25.4 c 2.932,0.934 5.401,2.934 7.4,6 2,3.069 3.001,6.2 3.001,9.4 v 21.4 c 0,9.334 -3.135,17.1 -9.4,23.3 z m -162.399,6.7 v -147.6 h 16.2 c 1.731,0 2.6,0.869 2.6,2.6 v 147.6 h -16.2 c -1.734,0 -2.6,-0.866 -2.6,-2.6 z m -57.599,2.6 c -1.6,0 -2.8,-0.8 -3.6,-2.4 l -30.4,-64.2 h -25.6 -5.8 c -6.134,0 -9.869,-1.8 -11.2,-5.4 h -0.4 v 69.4 c 0,1.734 -0.869,2.6 -2.6,2.6 h -16.2 v -138.6 c 0,-3.2 1.131,-5.931 3.4,-8.2 2.266,-2.266 5,-3.4 8.2,-3.4 h 62.8 c 9.731,0 17.831,2.9 24.3,8.7 6.466,5.8 9.7,13.634 9.7,23.5 v 19.4 c 0,8.269 -2.534,14.969 -7.6,20.1 -5.069,5.134 -11.6,8.769 -19.6,10.9 l 32,67.6 z m -10.6,-88.3 c 2.931,-3 4.4,-6.566 4.4,-10.7 v -18.8 c 0,-4.131 -1.469,-7.7 -4.4,-10.7 -2.934,-3 -6.534,-4.5 -10.8,-4.5 h -51.8 c -1.069,0 -1.969,0.369 -2.7,1.1 -0.734,0.734 -1.1,1.634 -1.1,2.7 v 41.6 c 0,1.069 0.366,1.969 1.1,2.7 0.731,0.734 1.631,1.1 2.7,1.1 h 51.8 c 4.266,0 7.866,-1.5 10.8,-4.5 z m -148.2,85.7 v -64 h -71.8 v 64 c 0,1.734 -0.869,2.6 -2.6,2.6 h -16.2 v -150.2 h 16.2 c 1.731,0 2.6,0.869 2.6,2.6 v 63.8 h 71.8 v -63.8 c 0,-1.731 0.866,-2.6 2.6,-2.6 h 16.2 v 150.2 h -16.2 c -1.734,0 -2.6,-0.866 -2.6,-2.6 z m -222.399,-7.4 c -6.668,-6.666 -10,-14.666 -10,-24 v -82.2 c 0,-9.466 3.332,-17.5 10,-24.1 6.666,-6.6 14.666,-9.9 24,-9.9 h 66 v 14.6 c 0,1.734 -0.868,2.6 -2.6,2.6 h -63.4 c -4.268,0 -7.868,1.5 -10.8,4.5 -2.934,3 -4.4,6.569 -4.4,10.7 v 85.4 c 0,4.269 1.466,7.869 4.4,10.8 2.932,2.934 6.532,4.4 10.8,4.4 h 63.4 c 1.732,0 2.6,0.869 2.6,2.6 v 14.6 h -66 c -9.334,0 -17.334,-3.331 -24,-10 z"
         inkscape:connector-curvature="0"
         style="fill:#037394;fill-rule:evenodd" />
      <path
         id="path4548"
         d="m 1690.225,226.325 c -6.269,6.2 -14.069,9.3 -23.4,9.3 h -76.6 v -14.6 c 0,-1.731 0.866,-2.6 2.6,-2.6 h 74 c 4.131,0 7.631,-1.466 10.5,-4.4 2.866,-2.931 4.3,-6.531 4.3,-10.8 v -18.2 c 0,-2.531 -1.2,-4.131 -3.6,-4.8 l -76.8,-25.6 c -3.069,-1.066 -5.669,-3.066 -7.8,-6 -2.134,-2.931 -3.2,-6 -3.2,-9.2 v -23.8 c 0,-9.2 3.231,-16.531 9.7,-22 6.466,-5.466 14.566,-8.2 24.3,-8.2 h 71.2 v 14.6 c 0,1.734 -0.869,2.6 -2.6,2.6 h -68.6 c -4.269,0 -7.9,1.269 -10.9,3.8 -3,2.534 -4.5,5.869 -4.5,10 v 19.4 c 0,2.669 1.2,4.334 3.6,5 l 76.8,25.4 c 2.931,0.934 5.4,2.934 7.4,6 2,3.069 3,6.2 3,9.4 v 21.4 c 0,9.334 -3.134,17.1 -9.4,23.3 z m -226.2,-0.7 c -6.668,-6.666 -10,-14.666 -10,-24 v -82.2 c 0,-9.466 3.332,-17.5 10,-24.1 6.666,-6.6 14.666,-9.9 24,-9.9 h 67.4 v 14.6 c 0,1.734 -0.868,2.6 -2.6,2.6 h -64.8 c -4.268,0 -7.868,1.5 -10.8,4.5 -2.934,3 -4.4,6.569 -4.4,10.7 v 38 c 2.266,-2.666 5.532,-4 9.8,-4 h 65.8 v 14.6 c 0,1.734 -0.868,2.6 -2.6,2.6 h -73 v 34.2 c 0,4.269 1.466,7.869 4.4,10.8 2.932,2.934 6.532,4.4 10.8,4.4 h 64.8 c 1.732,0 2.6,0.869 2.6,2.6 v 14.6 h -67.4 c -9.334,0 -17.334,-3.331 -24,-10 z m -87.799,10 h -64.2 c -3.2,0 -5.935,-1.131 -8.2,-3.4 -2.269,-2.266 -3.4,-5 -3.4,-8.2 v -127 c 0,-3.2 1.131,-5.931 3.4,-8.2 2.265,-2.266 5,-3.4 8.2,-3.4 h 64.2 c 9.465,0 17.5,3.3 24.1,9.9 6.6,6.6 9.9,14.634 9.9,24.1 v 82.2 c 0,9.334 -3.335,17.334 -10,24 -6.669,6.669 -14.669,10 -24,10 z m 15.2,-117.8 c 0,-4.131 -1.5,-7.7 -4.5,-10.7 -3,-3 -6.569,-4.5 -10.7,-4.5 h -53.2 c -2.535,0 -3.8,1.269 -3.8,3.8 v 108.2 c 0,1.069 0.365,1.969 1.1,2.7 0.731,0.734 1.631,1.1 2.7,1.1 h 53.2 c 4.131,0 7.7,-1.466 10.7,-4.4 3,-2.931 4.5,-6.531 4.5,-10.8 z m -169.4,118.6 h -45.2 c -9.469,0 -17.5,-3.331 -24.1,-10 -6.6,-6.666 -9.9,-14.666 -9.9,-24 v -83.8 c 0,-9.466 3.3,-17.5 9.9,-24.1 6.6,-6.6 14.631,-9.9 24.1,-9.9 h 45.2 c 9.331,0 17.331,3.334 24,10 6.666,6.669 10,14.669 10,24 v 83.8 c 0,9.334 -3.334,17.334 -10,24 -6.669,6.669 -14.669,10 -24,10 z m 15.2,-119.4 c 0,-4.131 -1.5,-7.7 -4.5,-10.7 -3,-3 -6.569,-4.5 -10.7,-4.5 h -45.2 c -4.134,0 -7.7,1.5 -10.7,4.5 -3,3 -4.5,6.569 -4.5,10.7 v 87 c 0,4.269 1.5,7.869 4.5,10.8 3,2.934 6.566,4.4 10.7,4.4 h 45.2 c 4.131,0 7.7,-1.466 10.7,-4.4 3,-2.931 4.5,-6.531 4.5,-10.8 z m -225.998,108.6 c -6.669,-6.666 -10,-14.666 -10,-24 v -82.2 c 0,-9.466 3.331,-17.5 10,-24.1 6.665,-6.6 14.665,-9.9 24,-9.9 h 66 v 14.6 c 0,1.734 -0.869,2.6 -2.6,2.6 h -63.4 c -4.269,0 -7.869,1.5 -10.8,4.5 -2.935,3 -4.4,6.569 -4.4,10.7 v 85.4 c 0,4.269 1.465,7.869 4.4,10.8 2.931,2.934 6.531,4.4 10.8,4.4 h 63.4 c 1.731,0 2.6,0.869 2.6,2.6 v 14.6 h -66 c -9.335,0 -17.335,-3.331 -24,-10 z"
         inkscape:connector-curvature="0"
         style="fill:#ffffff;fill-rule:evenodd" />
    </g>
  </g>
</svg>
