<?xml version="1.0" encoding="UTF-8"?>
<!-- Generator: Adobe Illustrator 16.0.0, SVG Export Plug-In . SVG Version: 6.00 Build 0)  -->
<!DOCTYPE svg PUBLIC "-//W3C//DTD SVG 1.1//EN" "http://www.w3.org/Graphics/SVG/1.1/DTD/svg11.dtd">
<svg version="1.1" id="Layer_1" xmlns="http://www.w3.org/2000/svg" xmlns:xlink="http://www.w3.org/1999/xlink" x="0px" y="0px" width="36px" height="36px" viewBox="0 0 36 36" enable-background="new 0 0 280 36" xml:space="preserve">
<path fill="#CC0000" d="M34.616,11.575V7.276h-6.904l-0.871,4.339h2.483l-0.795,3.999h-2.484l-0.86,4.328  c-0.067,0.294-0.117,0.506-0.147,0.71c-0.204,1.328,0.374,1.261,2.233,1.261l-0.85,4.257h-3.25c-3.072,0-5.571-0.026-4.922-3.177  c0.103-0.481,0.226-0.967,0.313-1.433l1.161-5.942h-2.389l0.797-3.999h2.388l0.869-4.339h-2.233V0.721h-8.266v13.322H1  C1.245,17.497,4.301,18,5.416,20.454c0.768,1.691,1.439,4.672,3.681,4.692c1.717,0.021,1.717-2.222,3.928-2.222  c2.208,0,3.188,4.195,5.152,7.649c1.472,2.712,3.917,4.532,6.133,4.688c1.819,0.126,2.699-0.492,2.699-0.492  c-0.491-0.988-0.737-1.973-0.737-3.455c0-2.221,1.719-4.44,3.682-5.919c2.699-1.972,5.644-2.719,6.625-2.959v-6.912  C36.579,15.524,34.616,14.474,34.616,11.575z M23.355,21.902L26.259,7.27h-3.346l-2.9,14.632H23.355z M27.156,2.644h-3.347  l-0.64,3.227h3.345L27.156,2.644z"/>
</svg>